<svg width="1920" height="366" viewBox="0 0 1920 366" fill="none" xmlns="http://www.w3.org/2000/svg">
<path d="M1920 0H1560V360H1920V0Z" fill="#F4F4F4"/>
<path d="M1440 0V360H1500V0H1440Z" fill="#F4F4F4"/>
<path d="M1275.86 0H1217.28L1074 360H1138.21L1169.21 277.969H1323.79L1354.79 360H1419L1275.86 0ZM1246.54 73.3438L1303.84 230.328H1189.3L1246.54 73.3438Z" fill="#F4F4F4"/>
<path d="M741 203.412C741 125.248 686.836 62 603.559 62C520.282 62 456 127.359 456 214.317C456 301.274 519.318 366 605.623 366C656.14 366 708.24 340.461 734.737 291.847C734.737 291.847 741 278.48 741 271.303C741 269.826 740.931 268.419 740.725 267.223H686.216C665.431 296.279 638.521 309.506 605.623 309.506C556.208 309.506 519.662 275.173 516.978 231.413H738.591C740.381 221.985 741 212.558 741 203.412ZM518.492 186.316C525.925 145.299 559.236 116.384 602.939 116.384C644.027 116.384 677.613 145.229 681.192 186.316H518.492Z" fill="#F4F4F4"/>
<path d="M938.694 62.2186C889.923 62.2186 858.268 80.4272 837 108.056V0H777V359.954H837V320.092C858.268 347.721 889.923 366 938.694 366C1020.44 366 1083 302.235 1083 212.598C1083 122.961 1020.44 62.2186 938.694 62.2186ZM931.559 311.937C876.137 311.937 836.648 266.38 836.648 212.598C836.648 158.816 876.483 116.282 931.559 116.282C986.635 116.282 1023.77 158.816 1023.77 212.598C1023.77 266.38 986.981 311.937 931.559 311.937Z" fill="#F4F4F4"/>
<path d="M392.326 60L328.089 299.335L259.907 63.1815H196.022L127.841 299.335L63.6033 60H0L86.1427 360H168.341L228 146.551L287.659 360H369.857L456 60H392.326Z" fill="#F4F4F4"/>
</svg>
